<?xml version="1.0" encoding="UTF-8"?>
<svg version="1.1" xmlns="http://www.w3.org/2000/svg" width="192" height="192">
<path d="M0 0 C63.36 0 126.72 0 192 0 C192 63.36 192 126.72 192 192 C128.64 192 65.28 192 0 192 C0 128.64 0 65.28 0 0 Z " fill="#6DAB9C" transform="translate(0,0)"/>
<path d="M0 0 C4.3643769 -1.1473362 7.68079431 -1.42963182 12 0 C14.4240948 2.43316531 16.10708712 5.15711045 17.8125 8.125 C18.25062012 8.88417725 18.68874023 9.64335449 19.14013672 10.42553711 C21.53484241 14.9858769 22.56920209 17.86724045 21 23 C20.09027338 27.32120144 19.52009746 31.61632141 19 36 C17.02 36 15.04 36 13 36 C13 36.99 13 37.98 13 39 C14.98 39 16.96 39 19 39 C19 39.66 19 40.32 19 41 C17.02 41 15.04 41 13 41 C13 42.65 13 44.3 13 46 C11.02 46.66 9.04 47.32 7 48 C8.12109566 49.62493901 8.12109566 49.62493901 10 51 C13.12549017 51.25048636 13.12549017 51.25048636 16 51 C16 52.32 16 53.64 16 55 C15.11957031 54.98839844 14.23914063 54.97679687 13.33203125 54.96484375 C12.17058594 54.95582031 11.00914063 54.94679687 9.8125 54.9375 C8.66394531 54.92589844 7.51539062 54.91429687 6.33203125 54.90234375 C3.38479964 54.98872217 0.82783048 55.17801637 -2 56 C-2.33 56.66 -2.66 57.32 -3 58 C-3.94875 57.505 -4.8975 57.01 -5.875 56.5 C-8.72278166 54.85575631 -8.72278166 54.85575631 -11 55 C-11 53.35 -11 51.7 -11 50 C-7.16262438 49.19213145 -3.93591456 49 0 49 C0 48.34 0 47.68 0 47 C-0.99 46.67 -1.98 46.34 -3 46 C-4.16796875 43.78515625 -4.16796875 43.78515625 -5.1875 41.0625 C-5.53167969 40.16660156 -5.87585938 39.27070312 -6.23046875 38.34765625 C-7 36 -7 36 -7 34 C-5.68 34.33 -4.36 34.66 -3 35 C-2.67 36.98 -2.34 38.96 -2 41 C-1.34 41 -0.68 41 0 41 C0.2165625 39.824375 0.2165625 39.824375 0.4375 38.625 C1 36 1 36 2 34 C4.5625 33.375 4.5625 33.375 7 33 C4.50494038 30.50494038 3.32671112 30.64051624 -0.125 30.375 C-1.03507812 30.30023438 -1.94515625 30.22546875 -2.8828125 30.1484375 C-3.58148438 30.09945312 -4.28015625 30.05046875 -5 30 C-4.37498605 28.31727014 -3.69822617 26.65369357 -3 25 C-2.690625 24.071875 -2.38125 23.14375 -2.0625 22.1875 C0 20 0 20 2.640625 19.6875 C5.44374969 19.6875 8.20553337 19.78650085 11 20 C10.71125 19.44570312 10.4225 18.89140625 10.125 18.3203125 C9.568125 17.23363281 9.568125 17.23363281 9 16.125 C8.62875 15.40570313 8.2575 14.68640625 7.875 13.9453125 C7 12 7 12 7 10 C3.37 10 -0.26 10 -4 10 C-3.06588007 6.2635203 -1.77257035 3.39100415 0 0 Z " fill="#DAE7E3" transform="translate(90,68)"/>
<path d="M0 0 C1.21042969 -0.01224609 2.42085937 -0.02449219 3.66796875 -0.03710938 C4.82683594 -0.03904297 5.98570313 -0.04097656 7.1796875 -0.04296875 C8.24687012 -0.04707764 9.31405273 -0.05118652 10.41357422 -0.05541992 C13.125 0.1875 13.125 0.1875 16.125 2.1875 C15.795 5.4875 15.465 8.7875 15.125 12.1875 C13.805 11.5275 12.485 10.8675 11.125 10.1875 C11.125 9.5275 11.125 8.8675 11.125 8.1875 C10.465 8.1875 9.805 8.1875 9.125 8.1875 C8.28703269 12.84287393 8.1088308 16.55828475 9.125 21.1875 C5.34168572 22.45495793 1.88260239 22.14890866 -2.0625 21.875 C-3.31417969 21.79636719 -4.56585938 21.71773437 -5.85546875 21.63671875 C-6.85191406 21.48847656 -7.84835938 21.34023437 -8.875 21.1875 C-9.205 20.5275 -9.535 19.8675 -9.875 19.1875 C-10.205 19.8475 -10.535 20.5075 -10.875 21.1875 C-12.94140625 21.6015625 -12.94140625 21.6015625 -15.4375 21.8125 C-16.26378906 21.88726562 -17.09007812 21.96203125 -17.94140625 22.0390625 C-18.89853516 22.11253906 -18.89853516 22.11253906 -19.875 22.1875 C-20.875 19.1875 -20.875 19.1875 -19.9375 17 C-19.4115625 16.1028125 -19.4115625 16.1028125 -18.875 15.1875 C-17.946875 15.39375 -17.01875 15.6 -16.0625 15.8125 C-12.72326598 16.55442966 -12.72326598 16.55442966 -9.875 14.1875 C-10.7 13.73375 -11.525 13.28 -12.375 12.8125 C-13.6125 12.008125 -13.6125 12.008125 -14.875 11.1875 C-14.875 10.5275 -14.875 9.8675 -14.875 9.1875 C-13.225 8.8575 -11.575 8.5275 -9.875 8.1875 C-11.195 7.5275 -12.515 6.8675 -13.875 6.1875 C-13.917721 4.52138095 -13.91563832 2.85367115 -13.875 1.1875 C-11.23629792 -1.45120208 -3.55316707 0.00187998 0 0 Z " fill="#7BB1A3" transform="translate(66.875,101.8125)"/>
<path d="M0 0 C0.66 0.33 1.32 0.66 2 1 C1.67 3.64 1.34 6.28 1 9 C-0.98 9 -2.96 9 -5 9 C-5 9.99 -5 10.98 -5 12 C-3.02 12 -1.04 12 1 12 C1 12.66 1 13.32 1 14 C-0.98 14 -2.96 14 -5 14 C-5 15.65 -5 17.3 -5 19 C-6.98 19.66 -8.96 20.32 -11 21 C-9.87890434 22.62493901 -9.87890434 22.62493901 -8 24 C-4.87450983 24.25048636 -4.87450983 24.25048636 -2 24 C-2 25.32 -2 26.64 -2 28 C-2.88042969 27.98839844 -3.76085937 27.97679688 -4.66796875 27.96484375 C-5.82941406 27.95582031 -6.99085937 27.94679688 -8.1875 27.9375 C-9.33605469 27.92589844 -10.48460938 27.91429688 -11.66796875 27.90234375 C-14.61520036 27.98872217 -17.17216952 28.17801637 -20 29 C-20.33 29.66 -20.66 30.32 -21 31 C-21.94875 30.505 -22.8975 30.01 -23.875 29.5 C-26.72278166 27.85575631 -26.72278166 27.85575631 -29 28 C-29 26.35 -29 24.7 -29 23 C-25.16262438 22.19213145 -21.93591456 22 -18 22 C-18 21.34 -18 20.68 -18 20 C-18.99 19.67 -19.98 19.34 -21 19 C-22.16796875 16.78515625 -22.16796875 16.78515625 -23.1875 14.0625 C-23.53167969 13.16660156 -23.87585938 12.27070312 -24.23046875 11.34765625 C-25 9 -25 9 -25 7 C-23.68 7.33 -22.36 7.66 -21 8 C-20.67 9.98 -20.34 11.96 -20 14 C-19.34 14 -18.68 14 -18 14 C-17.7834375 12.824375 -17.7834375 12.824375 -17.5625 11.625 C-17 9 -17 9 -16 7 C-13.4375 6.375 -13.4375 6.375 -11 6 C-13.49505962 3.50494038 -14.67328888 3.64051624 -18.125 3.375 C-19.03507812 3.30023438 -19.94515625 3.22546875 -20.8828125 3.1484375 C-21.58148438 3.09945312 -22.28015625 3.05046875 -23 3 C-23 2.67 -23 2.34 -23 2 C-22.00818726 1.96241577 -22.00818726 1.96241577 -20.99633789 1.92407227 C-18.01817695 1.80846898 -15.0403608 1.68558246 -12.0625 1.5625 C-10.50112305 1.50352539 -10.50112305 1.50352539 -8.90820312 1.44335938 C-7.42416992 1.38051758 -7.42416992 1.38051758 -5.91015625 1.31640625 C-4.53549194 1.26141968 -4.53549194 1.26141968 -3.13305664 1.20532227 C-1.0179272 1.22996136 -1.0179272 1.22996136 0 0 Z " fill="#79B0A2" transform="translate(108,95)"/>
<path d="M0 0 C1.32 0 2.64 0 4 0 C4 2.97 4 5.94 4 9 C5.65 9 7.3 9 9 9 C9 6.03 9 3.06 9 0 C11.97 0 14.94 0 18 0 C18 0.99 18 1.98 18 3 C16.02 3 14.04 3 12 3 C12 3.66 12 4.32 12 5 C13.65 5 15.3 5 17 5 C17 5.66 17 6.32 17 7 C15.35 7 13.7 7 12 7 C12 7.66 12 8.32 12 9 C12.78375 8.979375 13.5675 8.95875 14.375 8.9375 C17 9 17 9 19 10 C20.60339848 6.88228073 21.18974141 5.60988311 20.125 2.1875 C19.75375 1.465625 19.3825 0.74375 19 0 C22 0 22 0 23.6875 1.5 C24.120625 1.995 24.55375 2.49 25 3 C25.33 2.01 25.66 1.02 26 0 C26.99 0 27.98 0 29 0 C28.62875 1.051875 28.2575 2.10375 27.875 3.1875 C26.95723754 7.18632214 27.08615391 8.49128216 29 12 C28.01 12 27.02 12 26 12 C25.67 11.34 25.34 10.68 25 10 C24.46890625 10.32742187 23.9378125 10.65484375 23.390625 10.9921875 C20.37305843 12.2642989 18.01306977 12.1959363 14.75 12.125 C13.67234375 12.10695313 12.5946875 12.08890625 11.484375 12.0703125 C10.66453125 12.04710938 9.8446875 12.02390625 9 12 C9.33 13.65 9.66 15.3 10 17 C13.3 16.67 16.6 16.34 20 16 C20.33 16.66 20.66 17.32 21 18 C20.67 18.66 20.34 19.32 20 20 C20.66 19.34 21.32 18.68 22 18 C22 17.67 22 17.34 22 17 C23.41543415 16.80341192 24.83244031 16.61812454 26.25 16.4375 C27.03890625 16.33308594 27.8278125 16.22867188 28.640625 16.12109375 C31.00532874 15.99972651 32.7511037 16.30366743 35 17 C35 18.32 35 19.64 35 21 C32.63538763 21 30.27070971 20.99171261 27.90625 20.96484375 C26.7821875 20.95582031 25.658125 20.94679688 24.5 20.9375 C22.81390625 20.92009766 22.81390625 20.92009766 21.09375 20.90234375 C18.48036217 20.98483705 16.48951248 21.3191077 14 22 C11.66699067 22.03888349 9.33290199 22.0448635 7 22 C6.67 21.34 6.34 20.68 6 20 C5.67 20.99 5.34 21.98 5 23 C3.35 22.67 1.7 22.34 0 22 C0 20.02 0 18.04 0 16 C0.99 15.67 1.98 15.34 3 15 C3.33 14.34 3.66 13.68 4 13 C2.68 13 1.36 13 0 13 C0 8.71 0 4.42 0 0 Z " fill="#7CB2A5" transform="translate(110,102)"/>
<path d="M0 0 C4.12539026 -0.1037834 7.98745187 -0.01914454 12 1 C14.68308248 3.82593178 16 7.09823159 16 11 C14.87851563 10.98646484 14.87851563 10.98646484 13.734375 10.97265625 C8.0485631 10.9152397 8.0485631 10.9152397 3.37890625 13.625 C2.14827286 15.75540342 2.14827286 15.75540342 1 19 C-2 18 -2 18 -3.75 15.25 C-5.13620738 11.64586082 -5.3039384 10.56409829 -4 7 C-2.75396163 4.59836152 -1.4074227 2.31543734 0 0 Z " fill="#ABC9C2" transform="translate(85,77)"/>
<path d="M0 0 C0.66 0.33 1.32 0.66 2 1 C1.67 3.64 1.34 6.28 1 9 C-0.98 9 -2.96 9 -5 9 C-5 9.99 -5 10.98 -5 12 C-3.02 12 -1.04 12 1 12 C1 12.66 1 13.32 1 14 C-0.98 14 -2.96 14 -5 14 C-5 15.65 -5 17.3 -5 19 C-7.31 19 -9.62 19 -12 19 C-12.02686553 17.02090602 -12.04633375 15.04171029 -12.0625 13.0625 C-12.07410156 11.96035156 -12.08570312 10.85820313 -12.09765625 9.72265625 C-12 7 -12 7 -11 6 C-13.49505962 3.50494038 -14.67328888 3.64051624 -18.125 3.375 C-19.03507812 3.30023438 -19.94515625 3.22546875 -20.8828125 3.1484375 C-21.58148438 3.09945312 -22.28015625 3.05046875 -23 3 C-23 2.67 -23 2.34 -23 2 C-22.00818726 1.96241577 -22.00818726 1.96241577 -20.99633789 1.92407227 C-18.01817695 1.80846898 -15.0403608 1.68558246 -12.0625 1.5625 C-10.50112305 1.50352539 -10.50112305 1.50352539 -8.90820312 1.44335938 C-7.42416992 1.38051758 -7.42416992 1.38051758 -5.91015625 1.31640625 C-4.53549194 1.26141968 -4.53549194 1.26141968 -3.13305664 1.20532227 C-1.0179272 1.22996136 -1.0179272 1.22996136 0 0 Z " fill="#7DB2A5" transform="translate(108,95)"/>
<path d="M0 0 C1.95825873 -0.02694851 3.91662226 -0.04637218 5.875 -0.0625 C6.96554688 -0.07410156 8.05609375 -0.08570312 9.1796875 -0.09765625 C12 0 12 0 14 1 C14.99 3.64 15.98 6.28 17 9 C9.74 9 2.48 9 -5 9 C-3.35 6.03 -1.7 3.06 0 0 Z " fill="#E9EFED" transform="translate(90,88)"/>
<path d="M0 0 C2.97 0 5.94 0 9 0 C9 0.99 9 1.98 9 3 C7.02 3 5.04 3 3 3 C3 3.66 3 4.32 3 5 C4.65 5 6.3 5 8 5 C8 5.66 8 6.32 8 7 C6.35 7 4.7 7 3 7 C3 7.66 3 8.32 3 9 C3.78375 8.979375 4.5675 8.95875 5.375 8.9375 C8 9 8 9 10 10 C11.60339848 6.88228073 12.18974141 5.60988311 11.125 2.1875 C10.75375 1.465625 10.3825 0.74375 10 0 C13 0 13 0 14.6875 1.5 C15.120625 1.995 15.55375 2.49 16 3 C16.33 2.01 16.66 1.02 17 0 C17.99 0 18.98 0 20 0 C19.62875 1.051875 19.2575 2.10375 18.875 3.1875 C17.95723754 7.18632214 18.08615391 8.49128216 20 12 C19.01 12 18.02 12 17 12 C16.67 11.34 16.34 10.68 16 10 C15.46890625 10.32742187 14.9378125 10.65484375 14.390625 10.9921875 C9.85507171 12.90423448 4.84342149 12.10529177 0 12 C0 8.04 0 4.08 0 0 Z " fill="#DFEAE8" transform="translate(119,102)"/>
<path d="M0 0 C0.66 0.33 1.32 0.66 2 1 C3.87056791 1.2275015 5.74685958 1.40962811 7.625 1.5625 C8.62789062 1.64628906 9.63078125 1.73007813 10.6640625 1.81640625 C11.43492188 1.87699219 12.20578125 1.93757813 13 2 C13 1.34 13 0.68 13 0 C13.66 0 14.32 0 15 0 C15 0.66 15 1.32 15 2 C16.32 2 17.64 2 19 2 C19.33 1.34 19.66 0.68 20 0 C20.33 0.66 20.66 1.32 21 2 C23.31 2 25.62 2 28 2 C27.67 3.65 27.34 5.3 27 7 C15.23365675 7.21393351 15.23365675 7.21393351 10 6 C9.67 5.34 9.34 4.68 9 4 C8.67 4.66 8.34 5.32 8 6 C5.93359375 6.4140625 5.93359375 6.4140625 3.4375 6.625 C2.61121094 6.69976562 1.78492188 6.77453125 0.93359375 6.8515625 C-0.02353516 6.92503906 -0.02353516 6.92503906 -1 7 C-2 4 -2 4 -1.0625 1.8125 C-0.5365625 0.9153125 -0.5365625 0.9153125 0 0 Z " fill="#D0E0DD" transform="translate(48,117)"/>
<path d="M0 0 C0.99 0.33 1.98 0.66 3 1 C3 1.66 3 2.32 3 3 C5.475 3.495 5.475 3.495 8 4 C8 4.99 8 5.98 8 7 C7 8 7 8 3.5 8.4375 C1.7675 8.7159375 1.7675 8.7159375 0 9 C-0.33 9.66 -0.66 10.32 -1 11 C-1.66 11 -2.32 11 -3 11 C-3.33 10.01 -3.66 9.02 -4 8 C-6.97 8 -9.94 8 -13 8 C-13.33 6.35 -13.66 4.7 -14 3 C-13.15695313 2.95101562 -12.31390625 2.90203125 -11.4453125 2.8515625 C-10.34960938 2.77679688 -9.25390625 2.70203125 -8.125 2.625 C-6.48917969 2.52058594 -6.48917969 2.52058594 -4.8203125 2.4140625 C-1.86953526 2.26746509 -1.86953526 2.26746509 0 0 Z " fill="#72AE9F" transform="translate(133,111)"/>
<path d="M0 0 C0.33 0.66 0.66 1.32 1 2 C4.3 1.67 7.6 1.34 11 1 C11.33 1.66 11.66 2.32 12 3 C11.67 3.66 11.34 4.32 11 5 C11.66 4.34 12.32 3.68 13 3 C13 2.67 13 2.34 13 2 C14.41543415 1.80341192 15.83244031 1.61812454 17.25 1.4375 C18.03890625 1.33308594 18.8278125 1.22867188 19.640625 1.12109375 C22.00532874 0.99972651 23.7511037 1.30366743 26 2 C26 3.32 26 4.64 26 6 C23.63538763 6 21.27070971 5.99171261 18.90625 5.96484375 C17.7821875 5.95582031 16.658125 5.94679688 15.5 5.9375 C13.81390625 5.92009766 13.81390625 5.92009766 12.09375 5.90234375 C9.48844035 5.98458206 7.47882106 6.29803297 5 7 C3.33376361 7.03786901 1.66602403 7.04627845 0 7 C0 4.69 0 2.38 0 0 Z " fill="#C9DCD8" transform="translate(119,117)"/>
<path d="M0 0 C6.625 -0.25 6.625 -0.25 10 2 C9.67 5.3 9.34 8.6 9 12 C7.68 11.34 6.36 10.68 5 10 C5 9.34 5 8.68 5 8 C4.34 8 3.68 8 3 8 C3 9.32 3 10.64 3 12 C2.01 12 1.02 12 0 12 C0 8.04 0 4.08 0 0 Z " fill="#E5EFED" transform="translate(73,102)"/>
<path d="M0 0 C2.97 0 5.94 0 9 0 C9 0.99 9 1.98 9 3 C7.02 3 5.04 3 3 3 C3 3.66 3 4.32 3 5 C4.65 5 6.3 5 8 5 C8 5.66 8 6.32 8 7 C6.35 7 4.7 7 3 7 C3 7.66 3 8.32 3 9 C4.65 9 6.3 9 8 9 C8.33 9.99 8.66 10.98 9 12 C6.03 12 3.06 12 0 12 C0 8.04 0 4.08 0 0 Z " fill="#E2ECEA" transform="translate(63,102)"/>
<path d="M0 0 C1.134375 0.020625 2.26875 0.04125 3.4375 0.0625 C3.4375 1.0525 3.4375 2.0425 3.4375 3.0625 C1.7875 3.0625 0.1375 3.0625 -1.5625 3.0625 C-0.94375 3.35125 -0.325 3.64 0.3125 3.9375 C2.4375 5.0625 2.4375 5.0625 4.4375 7.0625 C3.90178571 10.59821429 3.90178571 10.59821429 2.4375 12.0625 C-3.09191176 12.29779412 -3.09191176 12.29779412 -5.5625 11.0625 C-5.5625 10.4025 -5.5625 9.7425 -5.5625 9.0625 C-3.9125 8.7325 -2.2625 8.4025 -0.5625 8.0625 C-1.8825 7.4025 -3.2025 6.7425 -4.5625 6.0625 C-4.605221 4.39638095 -4.60313832 2.72867115 -4.5625 1.0625 C-3.5625 0.0625 -3.5625 0.0625 0 0 Z " fill="#E4EFED" transform="translate(57.5625,101.9375)"/>
<path d="M0 0 C1.32 0.33 2.64 0.66 4 1 C4.33 2.98 4.66 4.96 5 7 C5.66 7 6.32 7 7 7 C7.144375 6.21625 7.28875 5.4325 7.4375 4.625 C8 2 8 2 9 0 C9.99 0 10.98 0 12 0 C10.66666667 4 9.33333333 8 8 12 C6.68 12 5.36 12 4 12 C3.3291288 10.3767313 2.66342971 8.75132422 2 7.125 C1.62875 6.22007813 1.2575 5.31515625 0.875 4.3828125 C0 2 0 2 0 0 Z " fill="#E8F1EF" transform="translate(83,102)"/>
<path d="M0 0 C1.32 0 2.64 0 4 0 C4 0.66 4 1.32 4 2 C6.31 2 8.62 2 11 2 C11 3.65 11 5.3 11 7 C10.01 7 9.02 7 8 7 C7.67 7.66 7.34 8.32 7 9 C6.05125 8.505 5.1025 8.01 4.125 7.5 C1.27721834 5.85575631 1.27721834 5.85575631 -1 6 C-1.042721 4.33388095 -1.04063832 2.66617115 -1 1 C-0.67 0.67 -0.34 0.34 0 0 Z " fill="#CDE0DB" transform="translate(80,117)"/>
<path d="M0 0 C0.99 0 1.98 0 3 0 C3 0.66 3 1.32 3 2 C3.66 2 4.32 2 5 2 C5 1.34 5 0.68 5 0 C5.66 0 6.32 0 7 0 C7.33 0.66 7.66 1.32 8 2 C9.98 2 11.96 2 14 2 C14 3.32 14 4.64 14 6 C9.38 6 4.76 6 0 6 C0 4.02 0 2.04 0 0 Z " fill="#D2E0DD" transform="translate(92,117)"/>
<path d="M0 0 C1.32 1.65 2.64 3.3 4 5 C3.34 6.65 2.68 8.3 2 10 C-0.83967231 10 -3.23735711 9.59732819 -6 9 C-6 8.34 -6 7.68 -6 7 C-4.35 7 -2.7 7 -1 7 C-1 6.34 -1 5.68 -1 5 C-2.65 5 -4.3 5 -6 5 C-6 4.34 -6 3.68 -6 3 C-4.02 3 -2.04 3 0 3 C0 2.01 0 1.02 0 0 Z " fill="#7BB1A3" transform="translate(128,102)"/>
<path d="M0 0 C0.66 0.66 1.32 1.32 2 2 C5.58343976 2.16677282 5.58343976 2.16677282 9 2 C8.67 3.65 8.34 5.3 8 7 C6.741875 7.04125 5.48375 7.0825 4.1875 7.125 C3.47980469 7.14820312 2.77210937 7.17140625 2.04296875 7.1953125 C0 7 0 7 -3 5 C-3 3 -3 3 -1.5 1.375 C-1.005 0.92125 -0.51 0.4675 0 0 Z " fill="#CBDEDA" transform="translate(67,117)"/>
<path d="M0 0 C2.64 0 5.28 0 8 0 C8 0.66 8 1.32 8 2 C6.02 2 4.04 2 2 2 C2 2.99 2 3.98 2 5 C3.98 5 5.96 5 8 5 C8 5.66 8 6.32 8 7 C6.02 7 4.04 7 2 7 C2 8.65 2 10.3 2 12 C1.34 12 0.68 12 0 12 C0 8.04 0 4.08 0 0 Z " fill="#F1F6F6" transform="translate(101,102)"/>
<path d="M0 0 C2.31 0 4.62 0 7 0 C7 0.66 7 1.32 7 2 C5.68 2 4.36 2 3 2 C3 3.32 3 4.64 3 6 C3.66 6.33 4.32 6.66 5 7 C4.34 7 3.68 7 3 7 C3 8.65 3 10.3 3 12 C2.01 12 1.02 12 0 12 C0 8.04 0 4.08 0 0 Z " fill="#D6E6E3" transform="translate(73,102)"/>
<path d="M0 0 C0.99 0 1.98 0 3 0 C3 3.3 3 6.6 3 10 C4.65 10 6.3 10 8 10 C8 10.66 8 11.32 8 12 C5.36 12 2.72 12 0 12 C0 8.04 0 4.08 0 0 Z " fill="#E4EDEB" transform="translate(110,102)"/>
<path d="M0 0 C2.31 0 4.62 0 7 0 C7 0.33 7 0.66 7 1 C5.35 1 3.7 1 2 1 C2 1.99 2 2.98 2 4 C3.65 4 5.3 4 7 4 C7 4.66 7 5.32 7 6 C5.35 6 3.7 6 2 6 C2 6.66 2 7.32 2 8 C3.65 8 5.3 8 7 8 C7 8.66 7 9.32 7 10 C4.69 10 2.38 10 0 10 C0 6.7 0 3.4 0 0 Z " fill="#F0F6F6" transform="translate(120,103)"/>
<path d="M0 0 C0.99 0 1.98 0 3 0 C3.99 2.31 4.98 4.62 6 7 C2.7 7 -0.6 7 -4 7 C-1.125 1.125 -1.125 1.125 0 0 Z " fill="#75AEA0" transform="translate(95,80)"/>
<path d="M0 0 C0.99 0 1.98 0 3 0 C3 3.96 3 7.92 3 12 C2.01 12 1.02 12 0 12 C0 8.04 0 4.08 0 0 Z " fill="#E2EBE9" transform="translate(96,102)"/>
<path d="M0 0 C0.66 0.33 1.32 0.66 2 1 C2 1.66 2 2.32 2 3 C2.66 3 3.32 3 4 3 C4.33 2.34 4.66 1.68 5 1 C5 1.66 5 2.32 5 3 C6.65 3 8.3 3 10 3 C10 3.33 10 3.66 10 4 C9.32453125 4.04898438 8.6490625 4.09796875 7.953125 4.1484375 C7.06109375 4.22320312 6.1690625 4.29796875 5.25 4.375 C4.36828125 4.44460937 3.4865625 4.51421875 2.578125 4.5859375 C0.00933618 4.99850055 -1.75841015 5.71160957 -4 7 C-4 6.34 -4 5.68 -4 5 C-4.66 4.67 -5.32 4.34 -6 4 C-6.33 4.66 -6.66 5.32 -7 6 C-7 5.01 -7 4.02 -7 3 C-4.69 3 -2.38 3 0 3 C0 2.01 0 1.02 0 0 Z " fill="#7EB3A6" transform="translate(56,120)"/>
<path d="M0 0 C0 2.64 0 5.28 0 8 C-1.65 7.67 -3.3 7.34 -5 7 C-5 5.02 -5 3.04 -5 1 C-2 0 -2 0 0 0 Z " fill="#BCD5CF" transform="translate(115,117)"/>
<path d="M0 0 C1.32 0 2.64 0 4 0 C4 1.65 4 3.3 4 5 C3.01 5 2.02 5 1 5 C0.67 5.66 0.34 6.32 0 7 C-2.475 6.01 -2.475 6.01 -5 5 C-5 4.67 -5 4.34 -5 4 C-3.35 4 -1.7 4 0 4 C0 2.68 0 1.36 0 0 Z " fill="#ACCCC4" transform="translate(87,119)"/>
<path d="M0 0 C1.32 0 2.64 0 4 0 C3.67 1.65 3.34 3.3 3 5 C-0.375 5.625 -0.375 5.625 -4 6 C-4.66 5.34 -5.32 4.68 -6 4 C-4.02 4 -2.04 4 0 4 C0 2.68 0 1.36 0 0 Z " fill="#81B5A8" transform="translate(106,119)"/>
<path d="M0 0 C0.99 0.66 1.98 1.32 3 2 C3 3.32 3 4.64 3 6 C1.68 6.33 0.36 6.66 -1 7 C-2 4 -2 4 -1.0625 1.8125 C-0.5365625 0.9153125 -0.5365625 0.9153125 0 0 Z " fill="#C5DBD5" transform="translate(48,117)"/>
<path d="M0 0 C0.99 0 1.98 0 3 0 C3.33 0.66 3.66 1.32 4 2 C4.99 1.34 5.98 0.68 7 0 C6.67 1.98 6.34 3.96 6 6 C5.01 6.33 4.02 6.66 3 7 C0 2.25 0 2.25 0 0 Z " fill="#7AB1A4" transform="translate(136,107)"/>
<path d="M0 0 C1.98 0 3.96 0 6 0 C4.68 0.33 3.36 0.66 2 1 C2 2.32 2 3.64 2 5 C2.66 5.33 3.32 5.66 4 6 C3.01 6.495 3.01 6.495 2 7 C1.34 7.99 0.68 8.98 0 10 C0 6.7 0 3.4 0 0 Z " fill="#F9FAFB" transform="translate(74,103)"/>
<path d="M0 0 C0.99 0.99 1.98 1.98 3 3 C2 5 2 5 -1 7 C-1 6.34 -1 5.68 -1 5 C-2.65 5 -4.3 5 -6 5 C-6 4.34 -6 3.68 -6 3 C-4.02 3 -2.04 3 0 3 C0 2.01 0 1.02 0 0 Z " fill="#88B7AA" transform="translate(128,102)"/>
<path d="M0 0 C-0.33 1.32 -0.66 2.64 -1 4 C-1.33 3.67 -1.66 3.34 -2 3 C-3.66617115 2.95936168 -5.33388095 2.957279 -7 3 C-7 2.01 -7 1.02 -7 0 C-3.98968256 -0.93423645 -3.13349732 -1.04449911 0 0 Z " fill="#B7D3CC" transform="translate(83,104)"/>
<path d="M0 0 C0.33 0 0.66 0 1 0 C1 1.98 1 3.96 1 6 C-0.65 6.33 -2.3 6.66 -4 7 C-4.33 6.01 -4.66 5.02 -5 4 C-4.34 3.01 -3.68 2.02 -3 1 C-2.01 1.99 -1.02 2.98 0 4 C0 2.68 0 1.36 0 0 Z " fill="#8EBAAF" transform="translate(145,119)"/>
<path d="M0 0 C2 3 2 3 2 6 C2.99 6.33 3.98 6.66 5 7 C1.28400809 7.20086443 0.22791555 7.1519437 -3 5 C-3 3 -3 3 -1.5 1.375 C-1.005 0.92125 -0.51 0.4675 0 0 Z " fill="#B2CEC7" transform="translate(67,117)"/>
<path d="M0 0 C2.64 0 5.28 0 8 0 C8 0.66 8 1.32 8 2 C8.66 2 9.32 2 10 2 C9.67 2.66 9.34 3.32 9 4 C6.03 3.01 3.06 2.02 0 1 C0 0.67 0 0.34 0 0 Z " fill="#6DAB9B" transform="translate(61,114)"/>
<path d="M0 0 C0.33 0 0.66 0 1 0 C1 3.96 1 7.92 1 12 C0.34 11.67 -0.32 11.34 -1 11 C-2.36817102 4.95724466 -2.36817102 4.95724466 -1.0625 1.5625 C-0.711875 1.046875 -0.36125 0.53125 0 0 Z " fill="#81B4A7" transform="translate(95,102)"/>
<path d="M0 0 C0.99 0.33 1.98 0.66 3 1 C3.6875 3.0625 3.6875 3.0625 4 5 C3.21625 4.79375 2.4325 4.5875 1.625 4.375 C0.325625 4.189375 0.325625 4.189375 -1 4 C-1.66 4.66 -2.32 5.32 -3 6 C-2.42655063 3.13275314 -2.1385485 2.1385485 0 0 Z " fill="#7FB4A6" transform="translate(49,114)"/>
<path d="M0 0 C0.226875 0.61875 0.45375 1.2375 0.6875 1.875 C2.37929835 4.61410209 3.99244161 5.05024472 7 6 C7 6.33 7 6.66 7 7 C1.46153846 7.36923077 1.46153846 7.36923077 -0.875 5.5 C-1.24625 5.005 -1.6175 4.51 -2 4 C-1.34 2.68 -0.68 1.36 0 0 Z " fill="#7EB5A6" transform="translate(52,104)"/>
<path d="M0 0 C2.50298434 2.93828597 3.46930939 5.17902761 4 9 C2.68 8.01 1.36 7.02 0 6 C-0.66 6.66 -1.32 7.32 -2 8 C-1.33333333 5.33333333 -0.66666667 2.66666667 0 0 Z " fill="#81B5A7" transform="translate(83,104)"/>
<path d="M0 0 C0.99 0 1.98 0 3 0 C2.34 2.64 1.68 5.28 1 8 C0.01 7.34 -0.98 6.68 -2 6 C-1.34 4.02 -0.68 2.04 0 0 Z " fill="#DFEAE8" transform="translate(92,102)"/>
<path d="M0 0 C1.67542976 0.28604898 3.34385343 0.61781233 5 1 C5 2.32 5 3.64 5 5 C3.68 5 2.36 5 1 5 C0.34 3.68 -0.32 2.36 -1 1 C-0.67 0.67 -0.34 0.34 0 0 Z " fill="#DBE9E6" transform="translate(140,118)"/>
<path d="M0 0 C0.33 0.99 0.66 1.98 1 3 C1.66 3.33 2.32 3.66 3 4 C2.01 5.485 2.01 5.485 1 7 C0.34 7 -0.32 7 -1 7 C-1.144375 6.38125 -1.28875 5.7625 -1.4375 5.125 C-1.93152225 2.96741678 -1.93152225 2.96741678 -3 1 C-2.01 0.67 -1.02 0.34 0 0 Z " fill="#87B6AB" transform="translate(131,115)"/>
<path d="M0 0 C2.31 0 4.62 0 7 0 C6.67 1.32 6.34 2.64 6 4 C5.34 4 4.68 4 4 4 C4 3.01 4 2.02 4 1 C3.01 1 2.02 1 1 1 C0.67 2.32 0.34 3.64 0 5 C0 3.35 0 1.7 0 0 Z " fill="#82B6A8" transform="translate(103,109)"/>
</svg>
